<?xml version="1.0" encoding="UTF-8"?>
<!DOCTYPE svg PUBLIC "-//W3C//DTD SVG 1.1//EN" "http://www.w3.org/Graphics/SVG/1.1/DTD/svg11.dtd">
<svg xmlns="http://www.w3.org/2000/svg" version="1.1" width="512px" height="512px" style="shape-rendering:geometricPrecision; text-rendering:geometricPrecision; image-rendering:optimizeQuality; fill-rule:evenodd; clip-rule:evenodd" xmlns:xlink="http://www.w3.org/1999/xlink">
<g><path style="opacity:0.999" fill="#f3f3f3" d="M 401.5,194.5 C 399.067,195.548 399.067,196.214 401.5,196.5C 417.135,198.793 432.468,202.293 447.5,207C 454.596,213.489 456.429,221.322 453,230.5C 448.095,237.806 441.261,240.639 432.5,239C 406.242,234.215 380.076,229.048 354,223.5C 349.657,224.921 345.491,226.754 341.5,229C 333.066,233.772 324.9,238.938 317,244.5C 317.598,251.525 317.431,258.525 316.5,265.5C 328.77,273.62 341.603,280.62 355,286.5C 382.183,281.23 409.349,275.897 436.5,270.5C 451.707,272.242 457.54,280.576 454,295.5C 451.768,300.731 447.935,304.231 442.5,306C 428.651,308.502 414.984,311.502 401.5,315C 410.833,320.333 420.167,325.667 429.5,331C 440.721,338.312 443.554,348.145 438,360.5C 428.336,371.211 417.503,372.377 405.5,364C 397.833,359.5 390.167,355 382.5,350.5C 382.167,351 381.833,351.5 381.5,352C 385,363.167 388.5,374.333 392,385.5C 396.89,404.943 389.39,413.443 369.5,411C 363.93,408.057 360.097,403.557 358,397.5C 349.728,372.018 341.062,346.684 332,321.5C 321.747,314.955 311.247,308.788 300.5,303C 298.029,302.294 295.695,302.627 293.5,304C 287.41,307.46 281.577,311.294 276,315.5C 275.195,328.864 275.528,342.198 277,355.5C 295,376.167 313,396.833 331,417.5C 338.084,428.435 336.584,437.935 326.5,446C 320.607,448.87 314.607,448.87 308.5,446C 297.631,434.8 287.131,423.3 277,411.5C 277.948,424.902 277.281,438.235 275,451.5C 272.705,461.087 266.538,466.087 256.5,466.5C 247.594,465.971 241.427,461.638 238,453.5C 236.632,439.481 236.132,425.481 236.5,411.5C 227.843,420.993 219.343,430.66 211,440.5C 201.309,449.471 191.309,449.804 181,441.5C 176.333,433.833 176.333,426.167 181,418.5C 199,397.833 217,377.167 235,356.5C 236.829,342.528 236.829,328.528 235,314.5C 228.918,309.873 222.418,305.873 215.5,302.5C 204.004,308.747 192.67,315.247 181.5,322C 180.299,322.903 179.465,324.069 179,325.5C 170.395,351.982 161.395,378.316 152,404.5C 146.95,411.599 140.117,414.099 131.5,412C 123.479,409.48 119.146,403.98 118.5,395.5C 122.12,381.137 126.454,366.971 131.5,353C 131.167,352.5 130.833,352 130.5,351.5C 120.833,357 111.167,362.5 101.5,368C 86.7198,373.08 76.8865,368.246 72,353.5C 71.2811,346.879 73.1144,341.045 77.5,336C 88.9646,329.365 100.298,322.532 111.5,315.5C 97.1918,312.271 82.8585,309.105 68.5,306C 58.2161,300.249 55.0494,291.749 59,280.5C 63.1269,274.389 68.9603,271.389 76.5,271.5C 103.484,275.997 130.317,281.33 157,287.5C 160.634,286.733 164.134,285.566 167.5,284C 176.584,278.374 185.75,272.874 195,267.5C 196.601,259.605 196.934,251.605 196,243.5C 185.407,236.117 174.24,229.617 162.5,224C 159.5,223.333 156.5,223.333 153.5,224C 130.218,228.923 106.885,233.59 83.5,238C 64.3282,240.497 56.4949,232.331 60,213.5C 61.8333,209 65,205.833 69.5,204C 83.8333,201 98.1667,198 112.5,195C 102.998,189.081 93.331,183.414 83.5,178C 73.8651,171.986 70.6984,163.486 74,152.5C 77.5439,144.459 83.7106,140.126 92.5,139.5C 97.8185,140.44 102.819,142.273 107.5,145C 115.749,149.707 123.916,154.541 132,159.5C 128.838,146.676 124.838,134.01 120,121.5C 117.933,103.567 125.766,95.7336 143.5,98C 148.333,100.167 151.833,103.667 154,108.5C 162.803,134.575 171.803,160.575 181,186.5C 192.251,194.546 204.085,201.713 216.5,208C 223.474,206.596 229.64,203.429 235,198.5C 236.905,184.506 236.905,170.506 235,156.5C 217.569,135.98 199.903,115.646 182,95.5C 174.938,84.5943 176.438,75.0943 186.5,67C 189.49,66.1026 192.49,65.2692 195.5,64.5C 198.51,65.2692 201.51,66.1026 204.5,67C 215.369,78.2005 225.869,89.7005 236,101.5C 235.185,88.4958 235.518,75.4958 237,62.5C 241.934,48.8374 251.434,44.3374 265.5,49C 270.06,51.2271 273.226,54.7271 275,59.5C 275.333,73.8333 275.667,88.1667 276,102.5C 285.637,92.5427 294.803,82.2093 303.5,71.5C 313.874,62.1962 323.708,62.8629 333,73.5C 336.58,80.6949 336.247,87.6949 332,94.5C 313.667,115.5 295.333,136.5 277,157.5C 276.182,160.107 275.682,162.774 275.5,165.5C 276.593,173.156 276.593,180.823 275.5,188.5C 275.667,191.167 275.833,193.833 276,196.5C 276.465,197.931 277.299,199.097 278.5,200C 284.253,203.294 290.087,206.46 296,209.5C 308.167,202.418 320.167,195.084 332,187.5C 341.197,161.575 350.197,135.575 359,109.5C 362.043,102.219 367.543,98.2193 375.5,97.5C 386.56,98.56 392.56,104.56 393.5,115.5C 390.05,129.352 385.883,143.019 381,156.5C 380.333,157.833 380.333,159.167 381,160.5C 388.417,155.874 395.917,151.374 403.5,147C 408.895,143.646 414.728,141.48 421,140.5C 437.568,144.302 443.235,154.302 438,170.5C 436.542,172.96 434.709,175.127 432.5,177C 422.464,183.352 412.13,189.185 401.5,194.5 Z"/></g>
<g><path style="opacity:0.996" fill="#010101" d="M 252.5,56.5 C 259.553,55.3373 264.386,58.0039 267,64.5C 267.667,80.1667 267.667,95.8333 267,111.5C 264.79,117.045 261.123,121.379 256,124.5C 251.986,121.146 248.653,117.146 246,112.5C 245.333,96.5 245.333,80.5 246,64.5C 247.305,61.0386 249.471,58.372 252.5,56.5 Z"/></g>
<g><path style="opacity:0.998" fill="#030303" d="M 192.5,74.5 C 195.32,74.2475 197.986,74.7475 200.5,76C 217.039,94.2039 233.206,112.704 249,131.5C 252.743,137.029 257.076,137.695 262,133.5C 278.461,114.037 295.294,94.8702 312.5,76C 320.127,72.98 324.793,75.48 326.5,83.5C 326.378,85.7912 325.545,87.7912 324,89.5C 303.167,113 282.333,136.5 261.5,160C 258.167,162 254.833,162 251.5,160C 231,136.833 210.5,113.667 190,90.5C 184.684,84.0654 185.517,78.7321 192.5,74.5 Z"/></g>
<g><path style="opacity:0.999" fill="#030303" d="M 134.5,106.5 C 140.308,105.652 144.142,107.985 146,113.5C 155.469,142.241 165.136,170.907 175,199.5C 176.739,205.186 174.906,209.02 169.5,211C 138.815,217.879 107.982,224.046 77,229.5C 69.1703,229.186 66.1703,225.186 68,217.5C 69.2506,214.619 71.4173,212.786 74.5,212C 96.8056,207.481 119.139,203.147 141.5,199C 145.525,198.332 149.359,197.165 153,195.5C 153.667,193.5 153.667,191.5 153,189.5C 144.802,165.908 136.802,142.241 129,118.5C 127.873,113.089 129.707,109.089 134.5,106.5 Z"/></g>
<g><path style="opacity:0.999" fill="#030303" d="M 371.5,107.5 C 378.939,105.431 383.272,108.098 384.5,115.5C 376.913,140.677 368.747,165.677 360,190.5C 359.333,192.5 359.333,194.5 360,196.5C 385.943,202.756 412.109,208.256 438.5,213C 446.006,216.379 447.34,221.379 442.5,228C 440.61,229.112 438.61,229.946 436.5,230.5C 406.442,224.988 376.442,219.155 346.5,213C 338.913,210.997 336.08,206.164 338,198.5C 348.197,169.575 358.197,140.575 368,111.5C 369.376,110.295 370.542,108.962 371.5,107.5 Z"/></g>
<g><path style="opacity:0.998" fill="#030303" d="M 88.5,149.5 C 91.1873,149.336 93.854,149.503 96.5,150C 110.091,157.267 123.425,164.934 136.5,173C 140.077,177.546 142.41,182.712 143.5,188.5C 138.405,190.885 133.072,192.052 127.5,192C 113.909,184.733 100.575,177.066 87.5,169C 79.4338,162.137 79.7671,155.637 88.5,149.5 Z"/></g>
<g><path style="opacity:0.998" fill="#030303" d="M 416.5,150.5 C 424.697,149.095 429.697,152.429 431.5,160.5C 431.026,163.764 429.693,166.598 427.5,169C 414.506,175.828 401.839,183.162 389.5,191C 382.78,192.938 376.113,192.772 369.5,190.5C 370.429,182.478 374.096,175.978 380.5,171C 392.725,164.392 404.725,157.559 416.5,150.5 Z"/></g>
<g><path style="opacity:1" fill="#070707" d="M 266.5,166.5 C 267.494,176.653 267.828,186.986 267.5,197.5C 260.167,197.5 252.833,197.5 245.5,197.5C 245.168,187.478 245.501,177.478 246.5,167.5C 253.509,171.766 260.175,171.433 266.5,166.5 Z"/></g>
<g><path style="opacity:0.251" fill="#242424" d="M 401.5,194.5 C 401.5,195.167 401.5,195.833 401.5,196.5C 399.067,196.214 399.067,195.548 401.5,194.5 Z"/></g>
<g><path style="opacity:0.997" fill="#040404" d="M 184.5,200.5 C 193.055,205.362 201.555,210.362 210,215.5C 210.667,216.5 210.667,217.5 210,218.5C 206.166,223.497 202.833,228.83 200,234.5C 191.417,229.459 182.917,224.292 174.5,219C 181.361,214.78 184.694,208.614 184.5,200.5 Z"/></g>
<g><path style="opacity:0.997" fill="#050505" d="M 325.5,202.5 C 328.97,206.084 331.47,210.417 333,215.5C 335.124,216.622 336.957,218.122 338.5,220C 330.565,225.218 322.398,230.051 314,234.5C 309.556,229.124 305.723,223.291 302.5,217C 310.231,212.142 317.898,207.309 325.5,202.5 Z"/></g>
<g><path style="opacity:0.999" fill="#030303" d="M 246.5,205.5 C 274.497,202.572 293.997,213.905 305,239.5C 312.499,269.664 302.332,291.498 274.5,305C 241.898,312.95 219.398,301.45 207,270.5C 201.323,237.162 214.489,215.496 246.5,205.5 Z"/></g>
<g><path style="opacity:0.998" fill="#f9f9f9" d="M 248.5,220.5 C 270.721,218.177 285.221,227.51 292,248.5C 293.483,279.017 278.983,293.517 248.5,292C 227.353,285.227 218.186,270.727 221,248.5C 225.042,233.959 234.209,224.625 248.5,220.5 Z"/></g>
<g><path style="opacity:0.999" fill="#010101" d="M 249.5,229.5 C 272.334,228.17 283.5,238.836 283,261.5C 277.46,279.859 265.293,286.692 246.5,282C 231.658,274.476 226.491,262.643 231,246.5C 234.833,238.162 241,232.495 249.5,229.5 Z"/></g>
<g><path style="opacity:0.996" fill="#050505" d="M 313.5,276.5 C 322.542,280.188 331.209,284.688 339.5,290C 332.723,294.286 329.056,300.452 328.5,308.5C 320.127,303.987 312.127,298.987 304.5,293.5C 307.767,287.965 310.767,282.298 313.5,276.5 Z"/></g>
<g><path style="opacity:0.997" fill="#040404" d="M 197.5,276.5 C 198.376,276.369 199.043,276.702 199.5,277.5C 202.635,283.131 205.968,288.631 209.5,294C 201.416,299.795 192.916,304.961 184,309.5C 183.889,301.393 180.389,295.227 173.5,291C 181.73,286.392 189.73,281.559 197.5,276.5 Z"/></g>
<g><path style="opacity:0.998" fill="#030303" d="M 431.5,279.5 C 439.412,278.121 444.412,281.287 446.5,289C 445.284,292.221 443.284,294.888 440.5,297C 414.445,302.078 388.445,307.411 362.5,313C 360.813,314.913 360.313,317.08 361,319.5C 368.667,342.5 376.333,365.5 384,388.5C 385.943,397.486 382.443,402.319 373.5,403C 371,401.833 369.167,400 368,397.5C 358.333,368.5 348.667,339.5 339,310.5C 337.557,305.788 338.723,301.955 342.5,299C 372.316,292.539 401.983,286.039 431.5,279.5 Z"/></g>
<g><path style="opacity:0.999" fill="#030303" d="M 72.5,280.5 C 104.969,285.827 137.302,291.994 169.5,299C 170.931,299.465 172.097,300.299 173,301.5C 174.504,305.039 174.837,308.705 174,312.5C 164.333,340.833 154.667,369.167 145,397.5C 141.96,403.368 137.46,404.868 131.5,402C 129.513,399.86 128.18,397.36 127.5,394.5C 135.764,370.209 143.93,345.876 152,321.5C 152.667,319.167 152.667,316.833 152,314.5C 125.536,308.673 99.0359,302.84 72.5,297C 64.6448,291.587 64.6448,286.087 72.5,280.5 Z"/></g>
<g><path style="opacity:0.995" fill="#030303" d="M 245.5,316.5 C 252.833,316.5 260.167,316.5 267.5,316.5C 267.832,326.19 267.498,335.856 266.5,345.5C 259.833,341.5 253.167,341.5 246.5,345.5C 245.502,335.856 245.168,326.19 245.5,316.5 Z"/></g>
<g><path style="opacity:0.998" fill="#030303" d="M 380.5,317.5 C 383.187,317.336 385.854,317.503 388.5,318C 401.335,325.919 414.335,333.585 427.5,341C 432.833,346.667 432.833,352.333 427.5,358C 424.783,360.076 421.783,360.743 418.5,360C 405.338,352.92 392.338,345.587 379.5,338C 374.311,332.951 371.311,326.784 370.5,319.5C 374.04,319.247 377.373,318.581 380.5,317.5 Z"/></g>
<g><path style="opacity:0.999" fill="#040404" d="M 126.5,317.5 C 131.782,318.756 137.115,319.756 142.5,320.5C 141.64,326.456 139.64,331.956 136.5,337C 121.847,345.575 107.014,353.741 92,361.5C 81.7031,358.905 79.0364,352.905 84,343.5C 97.9801,334.431 112.147,325.765 126.5,317.5 Z"/></g>
<g><path style="opacity:0.998" fill="#030303" d="M 255.5,351.5 C 258.862,351.07 261.695,352.07 264,354.5C 283.293,377.462 302.96,400.129 323,422.5C 329.04,430.644 327.206,435.977 317.5,438.5C 315.701,438.423 314.034,437.923 312.5,437C 295.961,418.796 279.794,400.296 264,381.5C 260.257,375.971 255.924,375.305 251,379.5C 234.539,398.963 217.706,418.13 200.5,437C 192.639,440.067 187.973,437.401 186.5,429C 186.625,427.373 187.125,425.873 188,424.5C 208.5,401.333 229,378.167 249.5,355C 251.727,354.059 253.727,352.892 255.5,351.5 Z"/></g>
<g><path style="opacity:0.998" fill="#010101" d="M 255.5,387.5 C 259.769,391.313 263.602,395.646 267,400.5C 267.167,408.5 267.333,416.5 267.5,424.5C 267.625,433.571 267.125,442.571 266,451.5C 258.54,458.589 251.873,457.923 246,449.5C 245.333,433.167 245.333,416.833 246,400.5C 249.023,395.99 252.189,391.656 255.5,387.5 Z"/></g>
</svg>
