<?xml version="1.0" standalone="no"?>
<!DOCTYPE svg PUBLIC "-//W3C//DTD SVG 20010904//EN"
 "http://www.w3.org/TR/2001/REC-SVG-20010904/DTD/svg10.dtd">
<svg version="1.0" xmlns="http://www.w3.org/2000/svg"
 width="512.000000pt" height="512.000000pt" viewBox="0 0 512.000000 512.000000"
 preserveAspectRatio="xMidYMid meet">

<g transform="translate(0.000000,512.000000) scale(0.100000,-0.100000)"
fill="#000000" stroke="none">
<path d="M2510 4638 c-46 -13 -96 -51 -118 -91 -14 -27 -18 -68 -22 -250 l-5
-218 -153 176 c-84 96 -167 182 -184 191 -44 23 -134 15 -176 -15 -63 -44 -88
-133 -58 -204 7 -18 140 -176 295 -352 l281 -320 0 -215 0 -215 -46 -19 c-26
-10 -69 -34 -96 -53 l-50 -33 -187 107 c-102 59 -189 112 -193 117 -4 6 -66
186 -138 401 -73 214 -140 404 -151 420 -30 50 -91 78 -155 73 -90 -8 -145
-62 -151 -150 -4 -45 6 -84 66 -262 39 -115 69 -212 66 -214 -2 -2 -77 38
-167 91 -90 52 -174 98 -187 102 -47 14 -112 6 -156 -19 -49 -29 -70 -58 -87
-119 -15 -59 4 -128 47 -171 17 -17 106 -74 198 -126 91 -52 160 -98 154 -101
-7 -3 -111 -26 -231 -49 -198 -39 -222 -46 -253 -73 -46 -41 -63 -77 -63 -135
0 -53 25 -100 71 -134 58 -43 73 -42 523 48 l423 84 186 -107 187 -108 -7 -30
c-4 -16 -7 -72 -7 -124 l-1 -93 -183 -106 -182 -105 -413 83 c-288 57 -426 81
-458 78 -116 -12 -182 -134 -129 -242 33 -69 63 -81 310 -131 123 -25 225 -47
227 -49 3 -2 -62 -42 -142 -88 -81 -45 -165 -96 -188 -113 -137 -101 -87 -314
79 -341 58 -9 93 5 271 108 85 49 161 92 168 94 7 3 -19 -88 -62 -213 -62
-181 -74 -226 -70 -265 5 -55 41 -109 89 -134 40 -21 116 -21 155 -1 60 31 77
67 168 338 48 145 110 328 137 406 l50 142 161 92 c89 51 171 98 182 106 19
11 27 8 71 -25 28 -21 76 -49 107 -63 l57 -24 0 -215 0 -215 -281 -320 c-155
-176 -288 -336 -296 -355 -46 -108 37 -230 156 -230 75 0 99 19 261 204 l155
176 5 -217 c6 -241 10 -259 72 -307 72 -54 164 -54 236 0 62 48 66 66 72 307
l5 218 153 -176 c84 -96 167 -182 184 -191 44 -23 134 -15 176 15 63 44 88
133 58 204 -7 18 -140 176 -295 352 l-281 320 0 215 0 215 57 25 c31 13 75 38
98 55 22 17 46 34 53 39 9 5 76 -28 192 -95 l178 -102 73 -211 c40 -116 101
-299 137 -406 59 -177 69 -199 106 -237 32 -32 52 -43 87 -48 102 -15 199 67
199 167 0 18 -34 131 -75 250 -41 120 -72 218 -70 218 3 0 84 -46 181 -102
200 -115 237 -125 316 -90 80 35 130 131 108 210 -20 76 -47 101 -215 198 -88
51 -169 99 -179 106 -17 13 5 19 200 57 251 50 290 66 323 134 36 74 22 145
-39 200 -65 60 -68 60 -530 -32 -228 -45 -422 -81 -430 -81 -8 1 -94 47 -190
103 l-175 102 -1 95 c0 52 -4 104 -8 116 -6 18 15 33 181 128 l187 108 405
-81 c223 -45 423 -81 444 -81 126 0 206 134 148 247 -33 66 -68 80 -313 129
-121 24 -222 45 -224 47 -2 1 73 47 166 101 176 101 217 134 237 188 48 135
-68 277 -207 253 -21 -3 -115 -51 -210 -106 -95 -55 -175 -98 -177 -95 -2 2
28 97 67 211 48 142 70 222 70 255 0 163 -229 225 -312 84 -9 -16 -76 -204
-148 -419 -72 -214 -137 -395 -143 -402 -15 -14 -357 -213 -367 -213 -5 0 -30
15 -58 34 -27 18 -70 42 -96 52 l-46 19 0 215 0 215 281 320 c155 176 288 334
295 352 30 71 5 160 -58 204 -42 30 -132 38 -176 15 -17 -9 -100 -95 -184
-191 l-153 -176 -5 218 c-4 182 -8 223 -22 250 -23 41 -72 78 -123 92 -46 13
-48 13 -95 -1z m100 -83 c59 -31 60 -35 60 -315 l0 -255 -52 -62 c-29 -34 -55
-62 -58 -62 -3 0 -29 28 -57 62 l-53 62 0 253 c0 160 4 261 11 273 14 26 68
59 97 59 13 0 36 -7 52 -15z m-632 -172 c14 -3 127 -124 278 -297 141 -160
266 -300 280 -310 24 -20 24 -20 48 0 14 10 138 149 277 307 138 159 263 293
277 298 61 23 122 -23 122 -91 0 -35 -22 -63 -321 -403 -219 -250 -330 -369
-350 -376 -53 -18 -80 2 -221 162 -537 611 -508 577 -508 616 0 70 53 112 118
94z m-552 -338 c16 -10 55 -112 161 -427 190 -560 179 -520 163 -558 -7 -17
-25 -37 -39 -44 -14 -7 -238 -55 -498 -107 l-472 -94 -28 21 c-62 46 -64 128
-5 158 15 8 200 48 412 91 218 43 391 82 399 90 12 12 -5 69 -118 403 -139
409 -141 420 -98 460 36 33 77 36 123 7z m2387 -5 c41 -32 42 -72 7 -175 -119
-339 -228 -678 -223 -690 7 -19 17 -22 438 -105 198 -40 368 -76 378 -82 25
-13 50 -74 41 -101 -9 -30 -34 -57 -62 -68 -16 -6 -157 18 -500 86 -468 93
-478 95 -504 125 -16 17 -28 39 -28 49 0 11 70 226 155 478 167 495 171 503
239 503 18 0 45 -9 59 -20z m-2662 -516 c112 -64 212 -123 221 -131 24 -21 71
-163 55 -168 -7 -2 -44 -10 -84 -18 l-72 -14 -213 123 c-143 83 -219 132 -230
151 -20 32 -23 84 -7 114 14 27 68 59 100 59 15 0 114 -50 230 -116z m3131 67
c33 -37 37 -87 11 -131 -11 -19 -83 -66 -227 -150 l-211 -122 -74 12 c-108 17
-103 10 -72 101 l27 80 214 125 c203 118 217 125 260 120 34 -3 51 -11 72 -35z
m-1796 -146 c16 -8 49 -15 74 -15 25 0 58 7 74 15 15 8 30 15 32 15 2 0 4 -69
4 -154 l0 -153 -110 0 -110 1 0 153 c0 84 2 153 4 153 2 0 17 -7 32 -15z
m-454 -430 l86 -51 -30 -39 c-16 -22 -42 -64 -56 -92 -14 -29 -30 -53 -35 -53
-5 0 -70 34 -144 77 -113 64 -132 78 -116 86 57 30 94 88 95 148 l0 39 57 -32
c31 -18 95 -55 143 -83z m1255 66 c3 -61 40 -118 95 -147 13 -7 -12 -26 -117
-86 -74 -43 -136 -78 -139 -78 -3 0 -19 26 -35 59 -16 32 -41 72 -55 88 -14
17 -26 35 -26 39 0 6 250 155 275 164 1 0 1 -18 2 -39z m-631 -12 c95 -17 197
-72 269 -144 203 -203 203 -527 0 -731 -204 -203 -526 -203 -730 1 -205 205
-205 526 0 730 124 125 287 176 461 144z m631 -779 l113 -64 -35 -29 c-41 -33
-63 -73 -73 -127 l-7 -39 -132 76 -132 75 24 32 c13 17 38 62 56 99 30 65 32
67 53 54 11 -7 72 -42 133 -77z m-1273 34 c10 -26 34 -69 53 -97 18 -27 32
-51 31 -52 -2 -1 -61 -36 -133 -78 l-130 -75 -11 56 c-9 48 -18 63 -57 98
l-46 42 132 76 c73 42 134 76 137 76 3 0 14 -21 24 -46z m-767 -95 c243 -49
451 -94 462 -101 22 -13 41 -49 41 -78 0 -10 -68 -220 -151 -467 -165 -491
-166 -493 -240 -493 -50 0 -89 37 -89 84 0 17 40 148 89 291 160 468 167 493
151 509 -8 7 -192 48 -408 91 -349 69 -395 81 -417 103 -27 27 -33 78 -14 113
14 28 67 49 104 42 17 -3 229 -45 472 -94z m3187 75 c49 -50 29 -132 -37 -153
-17 -5 -194 -42 -392 -81 -198 -39 -370 -75 -382 -80 -13 -5 -23 -17 -23 -26
0 -8 56 -182 125 -386 69 -204 125 -385 125 -403 0 -25 -8 -40 -31 -59 -54
-45 -126 -27 -149 37 -73 201 -300 892 -300 912 0 37 48 82 96 90 21 4 224 45
449 90 226 46 429 84 451 84 32 1 47 -5 68 -25z m-1764 -491 c0 -84 -2 -153
-4 -153 -2 0 -17 7 -32 15 -37 19 -111 19 -148 0 -15 -8 -30 -15 -32 -15 -2 0
-4 69 -4 154 l0 153 110 0 110 -1 0 -153z m1401 25 c216 -125 249 -152 249
-206 0 -31 -25 -77 -52 -96 -49 -35 -89 -22 -277 86 -268 154 -245 135 -275
224 -14 43 -25 78 -23 80 4 4 132 32 149 33 10 1 113 -54 229 -121z m-2713 98
c35 -8 65 -16 68 -18 2 -3 -8 -40 -23 -84 l-28 -78 -214 -123 c-228 -131 -251
-138 -307 -104 -58 36 -70 124 -21 169 35 32 420 251 442 251 11 0 48 -6 83
-13z m1260 -344 c12 -9 162 -176 332 -371 285 -325 310 -356 310 -390 0 -43
-22 -78 -58 -92 -58 -22 -71 -11 -338 294 -141 161 -266 301 -280 311 -24 20
-24 20 -48 0 -14 -10 -140 -150 -280 -311 -267 -305 -280 -316 -338 -294 -36
14 -58 49 -58 92 0 39 -29 4 508 616 156 177 184 193 250 145z m0 -395 l52
-62 0 -257 0 -256 -26 -31 c-45 -54 -129 -51 -174 7 -19 23 -20 41 -20 281 l0
256 53 62 c28 34 54 62 57 62 3 0 29 -28 58 -62z"/>
<path d="M2498 2910 c-62 -11 -161 -64 -200 -109 -17 -19 -44 -64 -61 -99 -25
-54 -30 -76 -30 -142 0 -134 67 -247 183 -309 260 -139 566 77 520 366 -11 67
-63 164 -109 205 -78 69 -202 105 -303 88z m180 -99 c60 -31 95 -64 127 -123
25 -45 29 -64 29 -128 0 -109 -45 -187 -137 -240 -133 -76 -303 -29 -378 105
-86 154 -14 337 158 401 50 19 150 11 201 -15z"/>
</g>
</svg>
